<svg id="visual" viewBox="0 0 900 600" width="900" height="600" xmlns="http://www.w3.org/2000/svg" xmlns:xlink="http://www.w3.org/1999/xlink" version="1.1">  <path
            d="M0 24L21.5 26C43 28 86 32 128.8 32C171.7 32 214.3 28 257.2 24.3C300 20.7 343 17.3 385.8 15.5C428.7 13.7 471.3 13.3 514.2 15.2C557 17 600 21 642.8 25.7C685.7 30.3 728.3 35.7 771.2 37.7C814 39.7 857 38.3 878.5 37.7L900 37L900 0L878.5 0C857 0 814 0 771.2 0C728.3 0 685.7 0 642.8 0C600 0 557 0 514.2 0C471.3 0 428.7 0 385.8 0C343 0 300 0 257.2 0C214.3 0 171.7 0 128.8 0C86 0 43 0 21.5 0L0 0Z"
            fill="#cccccc"
            opacity={"0.7"}
          ></path>
          <path
            d="M0 18L21.5 21C43 24 86 30 128.8 28.8C171.7 27.7 214.3 19.3 257.2 15.5C300 11.7 343 12.3 385.8 13C428.7 13.7 471.3 14.3 514.2 17.7C557 21 600 27 642.8 29.8C685.7 32.7 728.3 32.3 771.2 29.8C814 27.3 857 22.7 878.5 20.3L900 18L900 0L878.5 0C857 0 814 0 771.2 0C728.3 0 685.7 0 642.8 0C600 0 557 0 514.2 0C471.3 0 428.7 0 385.8 0C343 0 300 0 257.2 0C214.3 0 171.7 0 128.8 0C86 0 43 0 21.5 0L0 0Z"
            fill="#CEDA6C"
          ></path>
          <path
            d="M0 9L21.5 11C43 13 86 17 128.8 18.7C171.7 20.3 214.3 19.7 257.2 19.2C300 18.7 343 18.3 385.8 16.2C428.7 14 471.3 10 514.2 10.7C557 11.3 600 16.7 642.8 17.8C685.7 19 728.3 16 771.2 15.2C814 14.3 857 15.7 878.5 16.3L900 17L900 0L878.5 0C857 0 814 0 771.2 0C728.3 0 685.7 0 642.8 0C600 0 557 0 514.2 0C471.3 0 428.7 0 385.8 0C343 0 300 0 257.2 0C214.3 0 171.7 0 128.8 0C86 0 43 0 21.5 0L0 0Z"
            fill="#fef3c7"
          ></path></svg>